<?xml version="1.0" encoding="UTF-8" standalone="no"?>
<!DOCTYPE svg PUBLIC "-//W3C//DTD SVG 1.1//EN" "http://www.w3.org/Graphics/SVG/1.1/DTD/svg11.dtd">
<svg xmlns="http://www.w3.org/2000/svg" version="1.1" viewBox="0.00 0.00 501.00 336.00">
<path fill="#bb052e" d="
  M 143.00 137.28
  Q 156.27 137.52 169.64 137.30
  Q 175.05 137.21 177.20 138.39
  C 183.00 141.59 183.49 147.66 181.10 153.37
  Q 176.72 163.80 166.38 167.28
  Q 162.67 168.53 156.40 168.48
  Q 131.15 168.29 108.79 168.45
  A 1.47 1.46 -80.4 0 1 107.40 166.49
  L 110.77 157.07
  A 2.51 2.50 -79.9 0 1 113.14 155.41
  Q 134.45 155.47 154.85 155.39
  Q 157.13 155.39 158.73 152.78
  C 160.07 150.59 158.49 148.44 156.21 148.41
  Q 144.04 148.24 130.21 148.45
  Q 124.14 148.54 121.95 147.30
  C 116.88 144.41 115.81 138.98 117.76 133.66
  C 121.51 123.41 129.93 117.24 140.76 117.28
  Q 165.37 117.38 190.60 117.33
  A 1.42 1.41 9.8 0 1 191.94 119.22
  L 188.58 128.57
  A 2.67 2.67 0.0 0 1 186.07 130.33
  Q 166.08 130.32 144.59 130.33
  A 4.50 4.45 -82.5 0 0 140.28 133.67
  Q 140.17 134.08 140.20 134.55
  Q 140.32 137.23 143.00 137.28
  Z"
/>
<path fill="#bb052e" d="
  M 220.63 137.31
  Q 233.98 137.50 248.66 137.28
  C 258.56 137.13 261.75 145.38 258.24 153.56
  Q 253.93 163.63 244.06 167.14
  Q 239.98 168.60 232.53 168.51
  Q 211.06 168.25 185.95 168.42
  Q 185.13 168.43 184.69 167.74
  Q 184.40 167.29 184.62 166.65
  Q 186.24 161.97 187.87 157.42
  Q 188.59 155.42 190.71 155.42
  L 231.46 155.43
  Q 234.52 155.43 235.99 152.76
  C 237.25 150.49 235.71 148.43 233.36 148.40
  Q 220.34 148.26 205.62 148.44
  Q 201.82 148.49 199.48 147.36
  C 194.15 144.79 193.11 139.01 194.96 133.75
  Q 198.90 122.56 209.70 118.57
  Q 213.28 117.24 219.42 117.27
  Q 243.79 117.40 267.86 117.32
  A 1.41 1.41 0.0 0 1 269.19 119.21
  L 265.77 128.69
  A 2.51 2.51 0.0 0 1 263.41 130.34
  Q 242.97 130.33 222.00 130.32
  Q 218.84 130.31 217.53 133.55
  Q 217.45 133.75 217.44 133.98
  Q 217.34 137.27 220.63 137.31
  Z"
/>
<path fill="#bb052e" d="
  M 262.08 166.39
  L 279.43 118.40
  A 1.52 1.52 0.0 0 1 280.85 117.40
  L 298.92 117.32
  A 1.52 1.52 0.0 0 1 300.36 119.36
  L 283.01 167.34
  A 1.52 1.52 0.0 0 1 281.59 168.34
  L 263.52 168.43
  A 1.52 1.52 0.0 0 1 262.08 166.39
  Z"
/>
<path fill="#bb052e" d="
  M 326.37 132.74
  C 324.97 134.90 326.29 137.25 328.68 137.30
  Q 340.60 137.52 357.03 137.28
  C 365.67 137.16 370.16 143.84 367.33 151.88
  Q 363.29 163.36 352.33 167.22
  Q 348.58 168.54 341.55 168.49
  Q 316.30 168.29 294.43 168.43
  A 1.42 1.41 -80.4 0 1 293.09 166.54
  L 296.50 157.00
  A 2.38 2.37 9.7 0 1 298.74 155.42
  L 338.82 155.43
  A 3.21 3.17 38.2 0 0 339.53 155.35
  Q 344.86 154.10 344.79 151.23
  Q 344.73 148.42 341.92 148.40
  Q 328.31 148.29 313.96 148.41
  Q 309.71 148.45 307.49 147.16
  C 302.28 144.14 301.57 138.50 303.62 133.15
  Q 307.84 122.23 318.29 118.52
  Q 322.12 117.16 329.70 117.24
  Q 350.53 117.45 369.88 117.31
  A 1.42 1.41 -80.3 0 1 371.22 119.21
  L 367.96 128.25
  Q 367.20 130.34 364.99 130.33
  L 330.81 130.32
  Q 327.93 130.32 326.37 132.74
  Z"
/>
<path fill="#bb052e" d="
  M 396.71 131.28
  Q 396.44 130.38 395.66 130.37
  Q 387.39 130.28 378.48 130.34
  A 1.45 1.44 9.8 0 1 377.11 128.41
  L 380.52 119.04
  A 2.59 2.59 0.0 0 1 382.95 117.34
  L 446.54 117.34
  A 1.45 1.45 0.0 0 1 447.91 119.28
  L 444.62 128.52
  A 2.74 2.74 0.0 0 1 442.04 130.34
  L 419.98 130.32
  A 2.59 2.58 -80.0 0 0 417.55 132.03
  L 405.09 166.58
  A 2.78 2.76 9.9 0 1 402.48 168.40
  L 386.07 168.40
  Q 383.58 168.40 384.43 166.06
  L 396.69 132.05
  A 1.24 1.16 -45.4 0 0 396.71 131.28
  Z"
/>
<path fill="#bb052e" d="
  M 82.62 150.02
  Q 82.59 148.51 81.60 148.51
  Q 70.86 148.45 60.73 148.50
  A 4.39 4.38 9.7 0 0 56.63 151.39
  L 51.08 166.72
  A 2.70 2.70 0.0 0 1 48.54 168.51
  L 31.29 168.50
  A 1.33 1.33 0.0 0 1 30.04 166.70
  Q 34.70 154.07 40.03 138.98
  Q 43.44 129.32 46.07 126.18
  C 51.37 119.87 58.05 117.33 66.47 117.39
  Q 85.14 117.53 101.93 117.47
  C 108.59 117.44 112.80 124.42 110.63 130.54
  Q 104.66 147.41 97.54 166.75
  A 2.69 2.68 -79.8 0 1 95.02 168.51
  L 77.95 168.50
  A 1.36 1.36 0.0 0 1 76.67 166.68
  L 82.59 150.25
  A 0.94 0.77 57.9 0 0 82.62 150.02
  Z
  M 88.4476 133.7038
  A 3.38 3.38 0.0 0 0 85.0265 130.3653
  L 66.2079 130.5952
  A 3.38 3.38 0.0 0 0 62.8695 134.0163
  L 62.8724 134.2562
  A 3.38 3.38 0.0 0 0 66.2935 137.5947
  L 85.1121 137.3648
  A 3.38 3.38 0.0 0 0 88.4505 133.9437
  L 88.4476 133.7038
  Z"
/>
<path fill="#bb052e" d="
  M 189.20 223.25
  Q 189.84 223.74 190.66 223.74
  Q 210.64 223.75 230.77 223.75
  A 1.41 1.40 9.9 0 1 232.10 225.63
  L 228.70 235.04
  A 2.61 2.59 9.9 0 1 226.25 236.75
  Q 201.75 236.75 177.28 236.75
  C 170.33 236.75 166.21 229.55 168.58 223.25
  Q 171.44 215.67 174.17 207.65
  Q 177.56 197.74 180.66 194.11
  Q 185.11 188.91 191.38 186.88
  Q 195.40 185.58 201.90 185.64
  Q 224.00 185.84 244.47 185.68
  A 1.42 1.42 0.0 0 1 245.82 187.59
  L 242.46 196.91
  A 2.77 2.76 9.9 0 1 239.86 198.73
  L 199.16 198.73
  A 2.51 2.51 0.0 0 0 196.80 200.38
  L 188.90 222.23
  A 0.89 0.89 0.0 0 0 189.20 223.25
  Z"
/>
<path fill="#bb052e" d="
  M 291.05 218.55
  A 1.35 1.35 0.0 0 0 289.78 216.74
  L 269.30 216.74
  A 4.47 4.47 0.0 0 0 265.09 219.70
  L 259.58 234.97
  A 2.70 2.69 9.8 0 1 257.04 236.75
  L 239.80 236.75
  A 1.38 1.38 0.0 0 1 238.51 234.89
  Q 244.24 219.39 249.28 205.21
  Q 252.10 197.28 254.85 194.10
  C 260.03 188.11 266.75 185.53 275.05 185.64
  Q 293.01 185.89 309.48 185.64
  C 314.76 185.56 319.16 189.18 319.66 194.42
  Q 319.91 197.04 318.26 201.51
  Q 311.60 219.54 306.12 234.91
  A 2.78 2.77 -80.1 0 1 303.51 236.75
  L 286.44 236.75
  A 1.36 1.36 0.0 0 1 285.16 234.93
  L 291.05 218.55
  Z
  M 296.9376 201.9539
  A 3.38 3.38 0.0 0 0 293.5165 198.6154
  L 274.7179 198.8451
  A 3.38 3.38 0.0 0 0 271.3795 202.2661
  L 271.3824 202.5061
  A 3.38 3.38 0.0 0 0 274.8035 205.8446
  L 293.6021 205.6149
  A 3.38 3.38 0.0 0 0 296.9405 202.1939
  L 296.9376 201.9539
  Z"
/>
<path fill="#bb052e" d="
  M 384.24 213.22
  C 388.82 214.24 389.52 218.30 388.02 222.17
  Q 385.54 228.57 383.43 234.84
  A 2.82 2.82 0.0 0 1 380.76 236.75
  L 364.19 236.75
  Q 361.75 236.75 362.58 234.45
  L 368.34 218.56
  A 1.36 1.36 0.0 0 0 367.06 216.74
  L 346.50 216.74
  A 4.40 4.39 -80.0 0 0 342.37 219.64
  L 336.80 235.04
  A 2.59 2.57 9.8 0 1 334.37 236.74
  Q 326.11 236.75 317.27 236.75
  A 1.98 1.82 -23.7 0 1 316.07 236.34
  Q 315.45 235.85 315.85 234.76
  Q 324.45 210.97 332.94 187.42
  A 2.55 2.53 9.7 0 1 335.32 185.75
  Q 361.05 185.70 387.99 185.72
  Q 390.48 185.72 392.57 186.95
  Q 398.83 190.63 397.14 198.47
  Q 394.80 209.25 384.22 212.69
  Q 383.26 213.00 384.24 213.22
  Z
  M 374.2281 201.9860
  A 3.38 3.38 0.0 0 0 370.8129 198.6415
  L 351.9740 198.8388
  A 3.38 3.38 0.0 0 0 348.6295 202.2540
  L 348.6319 202.4740
  A 3.38 3.38 0.0 0 0 352.0471 205.8185
  L 370.8860 205.6212
  A 3.38 3.38 0.0 0 0 374.2305 202.2060
  L 374.2281 201.9860
  Z"
/>
<path fill="#bb052e" d="
  M 469.55 201.47
  C 466.02 211.36 462.41 221.20 458.64 231.20
  C 457.29 234.78 453.49 236.80 449.78 236.80
  Q 421.87 236.80 394.33 236.80
  A 1.35 1.34 -79.9 0 1 393.07 234.99
  L 410.19 187.50
  A 2.71 2.71 0.0 0 1 412.75 185.71
  Q 434.62 185.73 460.80 185.71
  C 465.97 185.71 470.14 188.80 470.86 193.99
  Q 471.24 196.75 469.55 201.47
  Z
  M 417.64 221.87
  A 1.49 1.49 0.0 0 0 419.04 223.87
  L 439.09 223.77
  A 1.49 1.49 0.0 0 0 440.48 222.79
  L 448.50 200.76
  A 1.49 1.49 0.0 0 0 447.09 198.76
  L 427.13 198.84
  A 1.49 1.49 0.0 0 0 425.73 199.81
  L 417.64 221.87
  Z"
/>
</svg>
